<?xml version="1.0" encoding="UTF-8" standalone="no"?>
<!-- Created with Inkscape (http://www.inkscape.org/) -->

<svg
   width="210mm"
   height="51.096001mm"
   viewBox="0 0 210 51.096001"
   version="1.1"
   id="svg1"
   xml:space="preserve"
   inkscape:version="1.3 (0e150ed, 2023-07-21)"
   sodipodi:docname="cardin.svg"
   inkscape:export-filename="cardin-simple.svg"
   inkscape:export-xdpi="96"
   inkscape:export-ydpi="96"
   xmlns:inkscape="http://www.inkscape.org/namespaces/inkscape"
   xmlns:sodipodi="http://sodipodi.sourceforge.net/DTD/sodipodi-0.dtd"
   xmlns="http://www.w3.org/2000/svg"
   xmlns:svg="http://www.w3.org/2000/svg"><sodipodi:namedview
     id="namedview1"
     pagecolor="#ffffff"
     bordercolor="#666666"
     borderopacity="1.0"
     inkscape:showpageshadow="2"
     inkscape:pageopacity="0.0"
     inkscape:pagecheckerboard="true"
     inkscape:deskcolor="#d1d1d1"
     inkscape:document-units="mm"
     inkscape:zoom="0.94817868"
     inkscape:cx="388.1125"
     inkscape:cy="163.99862"
     inkscape:window-width="1680"
     inkscape:window-height="997"
     inkscape:window-x="0"
     inkscape:window-y="25"
     inkscape:window-maximized="1"
     inkscape:current-layer="layer1"
     showgrid="false" /><defs
     id="defs1" /><g
     inkscape:label="Layer 1"
     inkscape:groupmode="layer"
     id="layer1"><g
       id="g9"><path
         id="path1"
         style="fill:#000000;stroke-width:0.960159"
         d="m 196.78879,28.09487 c -11.03292,-0.03303 -13.71244,3.224818 -13.71629,16.677957 l -0.003,6.287541 h 3.42958 3.42956 l 0.006,-6.54158 c 0.008,-9.02193 0.6643,-10.223751 5.81866,-10.65587 6.27051,-0.525706 7.47933,1.150174 7.59496,10.52885 l 0.0824,6.6686 h 2.99888 c 3.94852,0 3.62221,0.734829 3.5164,-7.922442 C 209.79892,31.121127 207.17973,28.12598 196.78822,28.09487 Z" /><path
         id="path9"
         style="fill:#000000;stroke-width:0.960159"
         d="m 173.41693,27.942551 v 11.558908 11.558909 h 2.96465 c 4.32001,0 3.89448,1.310261 3.89448,-11.97917 V 27.942551 h -3.42956 z" /><path
         id="path9-5"
         style="fill:#ee7202;fill-opacity:1;stroke-width:0.960159"
         d="m 21.901703,27.895627 v 11.558908 11.558909 h 2.964653 c 4.320013,0 3.89448,1.310261 3.89448,-11.97917 V 27.895627 h -3.429562 z" /><path
         id="path8"
         style="fill:#000000;stroke-width:0.960159"
         d="M 88.820948,51.051669 80.12001,50.938044 C 72.985422,50.844716 71.148051,50.747433 69.915164,50.397215 58.553838,47.169882 58.972111,30.560423 70.472369,28.271741 c 1.18569,-0.235959 4.111983,-0.347078 9.563787,-0.363689 9.485382,-0.0288 8.784792,-0.293703 8.784792,3.317925 V 33.7272 h -7.830149 c -8.905078,0 -9.553031,0.103908 -11.061246,1.773326 -1.992384,2.205331 -1.69905,6.800996 0.530908,8.315416 1.762838,1.197183 1.845216,1.20788 10.294654,1.293526 l 8.065833,0.0819 v 2.929915 z" /><path
         id="path8-0"
         style="fill:#ee7202;fill-opacity:1;stroke-width:0.960159"
         d="m 58.790853,51.051679 -8.700939,-0.113626 c -7.134584,-0.09333 -8.971963,-0.19061 -10.204845,-0.540828 -11.361327,-3.227334 -10.943053,-19.836792 0.5572,-22.125474 1.18569,-0.235959 4.111985,-0.347078 9.563794,-0.363689 9.485379,-0.02881 8.78479,-0.293703 8.78479,3.317924 v 2.501223 h -7.830152 c -8.905078,0 -9.553031,0.103909 -11.061249,1.773327 -1.992377,2.205331 -1.699048,6.800996 0.530911,8.315416 1.762841,1.197183 1.845213,1.207879 10.294658,1.293525 l 8.065832,0.0819 v 2.929914 z" /><path
         id="path7"
         style="fill:#000000;stroke-width:0.960159"
         d="m 118.40096,27.892431 -8.57392,0.119578 c -13.869021,0.193645 -17.005168,1.90652 -18.019614,9.488374 -0.928992,6.943263 2.208566,11.806754 8.498004,13.172475 v 4.89e-4 c 2.15709,0.468375 17.47692,0.538736 17.93328,0.08238 0.22795,-0.227951 0.16225,-3.150194 0.16225,-11.584218 z m -6.59517,5.844457 0.0739,5.803765 -0.068,5.803766 -3.30255,0.03476 c -7.49669,0.07892 -9.677273,-1.066918 -9.976112,-5.243589 -0.341999,-4.779968 1.420401,-6.147868 8.631482,-6.300437 z" /><path
         id="path6"
         style="fill:#000000;stroke-width:0.960159"
         d="m 140.64551,27.871595 -4.76329,0.141902 c -11.93304,0.355422 -14.09189,2.703605 -14.23776,15.489126 l -0.0863,7.557246 h 3.0505 c 3.77954,0 3.43469,0.670632 3.59181,-6.986153 0.19532,-9.518504 0.84821,-10.267851 8.95201,-10.282253 l 3.49307,-0.0058 V 30.82895 Z" /><path
         id="path6-3"
         style="fill:#ee7202;fill-opacity:1;stroke-width:0.960159"
         d="m 19.08739,27.870721 -4.763292,0.141902 C 2.3910528,28.368045 0.2322019,30.716228 0.08633748,43.501749 L 0,51.058995 h 3.0504888 c 3.7795465,0 3.4346998,0.670632 3.5918163,-6.986153 0.1953193,-9.518504 0.848208,-10.26785 8.9520059,-10.282253 l 3.493079,-0.0058 v -2.956712 z" /><path
         id="path5"
         style="fill:#000000;stroke-width:0.960159"
         d="m 163.76333,22.353621 v 2.760725 2.760226 l -5.27137,0.141901 c -10.9549,0.29476 -14.79794,3.332932 -14.79794,11.698343 0,6.041309 2.86819,9.713513 8.5362,10.928766 2.65918,0.570133 17.42591,0.584775 17.99283,0.01786 0.35321,-0.353233 0.39941,-2.006501 0.39941,-14.353373 V 22.353621 h -3.42956 z m -4.01852,11.431889 h 4.01852 v 5.842969 5.842969 l -3.23903,-0.03476 c -7.27632,-0.07806 -9.31831,-1.014955 -9.9771,-4.578709 -0.94254,-5.098673 1.62452,-7.07249 9.19761,-7.07249 z" /><path
         id="path4"
         style="fill:#ee7202;fill-opacity:1;stroke-width:0.960159"
         d="m 119.38438,18.805969 c -7.67088,-0.05809 -6.80025,0.499398 -1.43791,5.560644 4.75314,4.486245 4.21892,4.639746 10.01877,-0.527435 6.1475,-5.476889 6.13642,-4.816338 -4.75832,-4.98161 -1.45628,-0.02208 -2.7267,-0.0433 -3.82254,-0.05156 z" /><path
         id="path3"
         style="fill:#ee7202;fill-opacity:1;stroke-width:0.960159"
         d="m 124.29553,9.6515282 c -22.40594,0 -21.23454,-0.4196853 -16.2309,4.5727558 l 2.84209,2.835636 5.84297,-0.118579 c 11.92622,-0.242258 26.43624,-3.794941 26.43624,-6.501887 0,-0.7838643 -0.0932,-0.7879258 -18.8904,-0.7879258 z" /><path
         id="path2"
         style="fill:#ee7202;fill-opacity:1;stroke-width:0.960159"
         d="M 124.93759,0.00189517 C 110.47941,-0.01826817 95.963175,0.12273114 95.607638,0.44448991 94.880654,1.1024098 94.794268,1.7488367 98.153018,4.6307241 l 3.009312,3.017241 13.94799,-0.028805 c 14.69213,-3.264e-4 16.88207,-0.1196357 23.87995,-1.298 C 148.1905,4.771973 154.57842,2.2419261 153.91971,0.52533527 153.79625,0.2035765 139.39575,0.0220777 124.93759,0.00186636 Z" /></g></g></svg>
