<?xml version="1.0" encoding="UTF-8" standalone="no"?>
<!-- Created with Inkscape (http://www.inkscape.org/) -->

<svg
   width="58.768002mm"
   height="58.768002mm"
   viewBox="0 0 58.768002 58.768002"
   version="1.1"
   id="svg1"
   xml:space="preserve"
   inkscape:version="1.3 (0e150ed, 2023-07-21)"
   sodipodi:docname="icon.svg"
   inkscape:export-filename="icon.svg"
   inkscape:export-xdpi="96"
   inkscape:export-ydpi="96"
   xmlns:inkscape="http://www.inkscape.org/namespaces/inkscape"
   xmlns:sodipodi="http://sodipodi.sourceforge.net/DTD/sodipodi-0.dtd"
   xmlns="http://www.w3.org/2000/svg"
   xmlns:svg="http://www.w3.org/2000/svg"><sodipodi:namedview
     id="namedview1"
     pagecolor="#ffffff"
     bordercolor="#666666"
     borderopacity="1.0"
     inkscape:showpageshadow="2"
     inkscape:pageopacity="0.0"
     inkscape:pagecheckerboard="true"
     inkscape:deskcolor="#d1d1d1"
     inkscape:document-units="mm"
     inkscape:zoom="2.5793729"
     inkscape:cx="91.107416"
     inkscape:cy="104.48276"
     inkscape:window-width="1680"
     inkscape:window-height="997"
     inkscape:window-x="0"
     inkscape:window-y="25"
     inkscape:window-maximized="1"
     inkscape:current-layer="layer1" /><defs
     id="defs1" /><g
     inkscape:label="Layer 1"
     inkscape:groupmode="layer"
     id="layer1"><g
       id="g9"
       transform="matrix(0.91178964,0,0,0.91178964,-84.208725,16.744637)"><path
         id="path4"
         style="fill:#ee7202;fill-opacity:1;stroke-width:0.960159"
         d="m 119.38438,18.805969 c -7.67088,-0.05809 -6.80025,0.499398 -1.43791,5.560644 4.75314,4.486245 4.21892,4.639746 10.01877,-0.527435 6.1475,-5.476889 6.13642,-4.816338 -4.75832,-4.98161 -1.45628,-0.02208 -2.7267,-0.0433 -3.82254,-0.05156 z" /><path
         id="path3"
         style="fill:#ee7202;fill-opacity:1;stroke-width:0.960159"
         d="m 124.29553,9.6515282 c -22.40594,0 -21.23454,-0.4196853 -16.2309,4.5727558 l 2.84209,2.835636 5.84297,-0.118579 c 11.92622,-0.242258 26.43624,-3.794941 26.43624,-6.501887 0,-0.7838643 -0.0932,-0.7879258 -18.8904,-0.7879258 z" /><path
         id="path2"
         style="fill:#ee7202;fill-opacity:1;stroke-width:0.960159"
         d="M 124.93759,0.00189517 C 110.47941,-0.01826817 95.963175,0.12273114 95.607638,0.44448991 94.880654,1.1024098 94.794268,1.7488367 98.153018,4.6307241 l 3.009312,3.017241 13.94799,-0.028805 c 14.69213,-3.264e-4 16.88207,-0.1196357 23.87995,-1.298 C 148.1905,4.771973 154.57842,2.2419261 153.91971,0.52533527 153.79625,0.2035765 139.39575,0.0220777 124.93759,0.00186636 Z" /></g></g></svg>
